<svg baseProfile="basic" xmlns="http://www.w3.org/2000/svg" viewBox="0 0 580.1 134.9"><path d="M102 24.5h6.5l.4 8c1.6-2.8 3.8-5 6.5-6.6 2.8-1.6 5.8-2.4 9.1-2.4 2.9.1 5.6.7 8.1 1.7 2.4 1 4.5 2.5 6.3 4.3 1.8 1.9 3.1 4.1 4.1 6.7 1 2.6 1.5 5.6 1.5 8.8 0 3.3-.5 6.2-1.5 8.9-1 2.6-2.3 4.9-4.1 6.8-1.8 1.9-3.9 3.3-6.4 4.3-2.5 1-5.3 1.5-8.3 1.5-2.9 0-5.8-.7-8.7-2-2.9-1.4-5.2-3.5-6.9-6.3V85H102V24.5zm21.9 35.7c4.2 0 7.5-1.3 10-3.9 2.5-2.6 3.8-6.3 3.8-11 0-4.9-1.3-8.6-3.8-11.2-2.5-2.6-5.9-3.8-10-3.8-2.2 0-4.1.4-5.9 1.2-1.8.8-3.3 1.8-4.5 3.2-1.3 1.3-2.2 2.9-2.9 4.8-.7 1.8-1 3.8-1 5.9 0 2.1.4 4.1 1.1 5.9.7 1.8 1.7 3.4 3 4.8 1.3 1.3 2.8 2.4 4.5 3.1 1.6.6 3.6 1 5.7 1zM161.6 65.6h-6.8V7.2h6.8v58.4zM208.6 65.6l-.2-7.3c-.8 1.4-1.8 2.6-3 3.6-1.1 1-2.4 1.9-3.7 2.6-1.3.7-2.7 1.2-4.2 1.5-1.5.3-2.9.5-4.3.5-2.9 0-5.7-.5-8.3-1.5-2.6-1-4.8-2.4-6.7-4.3-1.9-1.9-3.4-4.1-4.5-6.8s-1.6-5.7-1.6-9c0-3.5.6-6.6 1.7-9.3 1.1-2.7 2.6-4.9 4.5-6.7 1.9-1.8 4.2-3.2 6.7-4.1 2.6-.9 5.3-1.4 8.3-1.4 3.3 0 6.2.7 8.9 2 2.6 1.3 4.8 3.5 6.4 6.4l.1-7.5h6.7v41.2h-6.8zm-15-35.6c-2.1 0-4 .3-5.8 1-1.8.7-3.4 1.7-4.7 3-1.3 1.3-2.4 2.9-3.2 4.8-.8 1.9-1.2 4.1-1.2 6.5 0 2.3.4 4.3 1.2 6.2.8 1.9 1.8 3.4 3.2 4.8 1.3 1.3 2.9 2.3 4.7 3 1.8.7 3.7 1.1 5.8 1.1 3.3 0 6.1-.8 8.3-2.3 2.2-1.5 3.9-3.4 5-5.6 1.1-2.3 1.7-4.7 1.7-7.3 0-2.6-.6-5.1-1.7-7.3-1.1-2.3-2.8-4.1-5-5.6-2.2-1.6-5-2.3-8.3-2.3zM262.1 60.3c-2.2 2.2-4.5 3.8-7.1 4.8-2.6 1-5.3 1.5-8.1 1.5-2.9 0-5.7-.5-8.3-1.5-2.6-1-4.9-2.4-6.8-4.2-1.9-1.8-3.5-4.1-4.6-6.8-1.1-2.7-1.7-5.7-1.7-9.2 0-3.4.6-6.4 1.7-9.1 1.1-2.7 2.6-4.9 4.6-6.8 1.9-1.8 4.2-3.2 6.8-4.2 2.6-1 5.4-1.5 8.4-1.5 2.8 0 5.5.5 7.9 1.5 2.4 1 4.8 2.6 7 4.7l-4.4 4.5c-1.4-1.4-3.1-2.5-4.9-3.2-1.8-.7-3.6-1-5.5-1-2.1 0-4 .3-5.8 1-1.8.7-3.4 1.7-4.7 3-1.3 1.3-2.4 2.8-3.2 4.7-.8 1.9-1.2 4-1.2 6.3 0 2.4.4 4.6 1.2 6.5.8 1.9 1.8 3.4 3.2 4.7 1.4 1.3 2.9 2.3 4.7 2.9 1.8.7 3.7 1 5.7 1 1.9 0 3.9-.3 5.8-1s3.6-1.8 5-3.3l4.3 4.7zM306.9 59.3c-2.2 2.5-4.9 4.3-8.1 5.5-3.3 1.2-6.5 1.8-9.7 1.8-3.2 0-6.1-.5-8.8-1.5-2.7-1-5-2.4-6.9-4.3-1.9-1.9-3.4-4.2-4.5-6.9s-1.6-5.7-1.6-9c0-3.1.5-6 1.6-8.6 1.1-2.6 2.5-4.9 4.4-6.8 1.9-1.9 4.1-3.4 6.8-4.4 2.6-1.1 5.5-1.6 8.6-1.6 3.2 0 6.1.5 8.8 1.4 2.7.9 4.9 2.4 6.8 4.4 1.9 2 3.3 4.5 4.2 7.5.9 3 1.2 6.5.8 10.6h-35.1c.2 2 .7 3.8 1.5 5.4.9 1.6 2 2.9 3.3 4.1 1.3 1.1 2.9 2 4.6 2.6 1.8.6 3.6.9 5.5.9 1.2 0 2.4-.1 3.6-.3 1.3-.2 2.5-.5 3.6-1 1.2-.4 2.3-.9 3.3-1.6 1-.6 1.9-1.4 2.5-2.2l4.8 4zm-4.1-17.6c-.1-4-1.4-7-4-9-2.5-2-5.8-3-9.9-3-1.8 0-3.5.3-5.1.8-1.6.5-3.1 1.3-4.4 2.3-1.3 1-2.4 2.3-3.3 3.8-.9 1.5-1.5 3.3-1.8 5.3h28.5zM330.2 24.2h12.7V30h-12.8v22.5c0 2.4.5 4.4 1.4 5.8.9 1.4 2.6 2.1 5.1 2.1.9 0 1.9-.2 2.8-.5.9-.3 1.9-.7 2.8-1.1l2 5.7c-2.7 1.3-5.3 1.9-8 2-4.5.1-7.8-1.1-9.9-3.5-2.1-2.5-3.1-6-3.1-10.5V30.1H315v-5.8h8.3V13.2l6.9-.8v11.8zM348.9 45.1c0-3.2.5-6.1 1.6-8.8 1.1-2.7 2.6-4.9 4.5-6.8 1.9-1.9 4.1-3.4 6.8-4.4 2.6-1.1 5.4-1.6 8.5-1.6 3.1 0 6 .5 8.6 1.6 2.6 1.1 4.9 2.5 6.8 4.4 1.9 1.9 3.4 4.2 4.5 6.8 1.1 2.7 1.6 5.6 1.6 8.8 0 3.2-.5 6.1-1.6 8.7-1.1 2.6-2.6 4.9-4.5 6.8-1.9 1.9-4.2 3.4-6.8 4.4-2.6 1.1-5.5 1.6-8.5 1.6-3.1 0-6-.5-8.5-1.6-2.6-1.1-4.8-2.5-6.8-4.4-1.9-1.9-3.4-4.2-4.5-6.8-1.1-2.6-1.7-5.6-1.7-8.7zm36.1 0c0-2.3-.4-4.3-1.1-6.2-.8-1.9-1.8-3.5-3.1-4.8-1.3-1.3-2.8-2.4-4.6-3.1-1.8-.8-3.7-1.1-5.8-1.1-2.1 0-4.1.4-5.8 1.1-1.8.8-3.3 1.8-4.6 3.1-1.3 1.3-2.3 2.9-3.1 4.8-.8 1.9-1.1 3.9-1.1 6.2 0 2.2.4 4.3 1.1 6.1.8 1.9 1.8 3.5 3 4.8 1.3 1.3 2.8 2.4 4.6 3.1 1.8.7 3.7 1.1 5.8 1.1 2.1 0 4.1-.4 5.9-1.1 1.8-.7 3.4-1.8 4.7-3.1 1.3-1.3 2.3-2.9 3-4.8.7-1.9 1.1-3.9 1.1-6.1zM402.5 24.5h6.5l.4 8c1.6-2.8 3.8-5 6.5-6.6 2.8-1.6 5.8-2.4 9.1-2.4 2.9.1 5.6.7 8.1 1.7 2.4 1 4.5 2.5 6.3 4.3 1.8 1.9 3.1 4.1 4.1 6.7 1 2.6 1.5 5.6 1.5 8.8 0 3.3-.5 6.2-1.5 8.9-1 2.6-2.3 4.9-4.1 6.8-1.8 1.9-3.9 3.3-6.4 4.3-2.5 1-5.3 1.5-8.3 1.5-2.9 0-5.8-.7-8.7-2-2.9-1.4-5.2-3.5-6.9-6.3V85h-6.7V24.5zm21.8 35.7c4.2 0 7.5-1.3 10-3.9 2.5-2.6 3.8-6.3 3.8-11 0-4.9-1.3-8.6-3.8-11.2-2.5-2.6-5.9-3.8-10-3.8-2.2 0-4.1.4-5.9 1.2-1.8.8-3.3 1.8-4.5 3.2-1.3 1.3-2.2 2.9-2.9 4.8-.7 1.8-1 3.8-1 5.9 0 2.1.4 4.1 1.1 5.9.7 1.8 1.7 3.4 3 4.8s2.8 2.4 4.5 3.1c1.7.6 3.6 1 5.7 1zM488.7 65.6l-.2-7.3c-.8 1.4-1.8 2.6-3 3.6-1.1 1-2.4 1.9-3.7 2.6-1.3.7-2.7 1.2-4.2 1.5-1.5.3-2.9.5-4.3.5-2.9 0-5.7-.5-8.3-1.5-2.6-1-4.8-2.4-6.7-4.3-1.9-1.9-3.4-4.1-4.5-6.8s-1.6-5.7-1.6-9c0-3.5.6-6.6 1.7-9.3 1.1-2.7 2.6-4.9 4.5-6.7 1.9-1.8 4.2-3.2 6.7-4.1 2.6-.9 5.3-1.4 8.3-1.4 3.3 0 6.2.7 8.9 2 2.6 1.3 4.8 3.5 6.4 6.4l.1-7.5h6.7v41.2h-6.8zM473.6 30c-2.1 0-4 .3-5.8 1-1.8.7-3.4 1.7-4.7 3-1.3 1.3-2.4 2.9-3.2 4.8-.8 1.9-1.2 4.1-1.2 6.5 0 2.3.4 4.3 1.2 6.2.8 1.9 1.8 3.4 3.2 4.8 1.3 1.3 2.9 2.3 4.7 3 1.8.7 3.7 1.1 5.8 1.1 3.3 0 6.1-.8 8.3-2.3 2.2-1.5 3.9-3.4 5-5.6 1.1-2.3 1.7-4.7 1.7-7.3 0-2.6-.6-5.1-1.7-7.3-1.1-2.3-2.8-4.1-5-5.6-2.1-1.6-4.9-2.3-8.3-2.3zM519.7 85.1h-7.5l8.7-20.1-16.7-40.6h7.8l8.1 21.3 4.6 11.8 4.3-11.8 9.1-21.4h7.5l-25.9 60.8z"/><g><path d="M347 118.2c.7-1.2 1.1-2.8 1.1-4.7 0-1.7-.4-3.2-1.1-4.3-.7-1.1-1.8-1.7-3.3-1.7-1.3 0-2.4.5-3.3 1.4-1 .9-1.4 2.5-1.4 4.6 0 1.6.2 2.8.6 3.8.7 1.8 2.1 2.7 4.1 2.7 1.4 0 2.5-.6 3.3-1.8m-10.7-19h2.7v8.2c.6-.8 1.3-1.4 2.2-1.8.8-.4 1.8-.6 2.8-.6 2.1 0 3.7.7 5 2.1 1.3 1.4 1.9 3.5 1.9 6.3 0 2.6-.6 4.8-1.9 6.5-1.3 1.7-3 2.6-5.3 2.6-1.3 0-2.3-.3-3.2-.9-.5-.4-1.1-.9-1.7-1.7v2.1h-2.6V99.2zM363.4 105.4h3.1c-.4 1.1-1.3 3.5-2.6 7.2-1 2.8-1.8 5.1-2.5 6.9-1.6 4.2-2.7 6.8-3.4 7.7-.7.9-1.8 1.4-3.4 1.4h-.9c-.2 0-.5-.1-.8-.2V126c.5.1.8.2 1 .2h.6c.5 0 .9-.1 1.1-.3l.6-.6c.1-.1.2-.5.6-1.3.3-.8.5-1.3.7-1.7l-6.1-17h3.1l4.4 13.4 4.5-13.3zM398.8 112.9c-.1-2.7-1-4.7-2.7-6.1-1.7-1.4-4-2-6.7-2-1.2 0-2.4.2-3.5.5s-2.1.8-3 1.5c-.9.7-1.6 1.5-2.2 2.5-.6 1-1 2.2-1.3 3.6h19.4zm2.9 11.9c-1.5 1.7-3.3 2.9-5.5 3.7-2.2.8-4.4 1.2-6.6 1.2-2.2 0-4.2-.3-6-1-1.8-.7-3.4-1.7-4.7-2.9-1.3-1.3-2.3-2.8-3-4.7-.7-1.8-1.1-3.9-1.1-6.1 0-2.1.4-4 1.1-5.8.7-1.8 1.7-3.3 3-4.6 1.3-1.3 2.8-2.3 4.6-3 1.8-.7 3.7-1.1 5.9-1.1s4.2.3 6 1c1.8.6 3.4 1.6 4.7 3 1.3 1.3 2.2 3 2.9 5 .6 2 .8 4.4.5 7.2h-24c.1 1.4.5 2.6 1.1 3.6.6 1.1 1.3 2 2.3 2.8.9.8 2 1.3 3.2 1.7 1.2.4 2.5.6 3.8.6.8 0 1.6-.1 2.5-.2.9-.2 1.7-.4 2.5-.6.8-.3 1.5-.6 2.2-1.1.7-.4 1.3-.9 1.7-1.5l2.9 2.8zM409.3 101.2l4.6 10.9 4.7 12.2 4.8-12.1 4.5-11h5.2l-11.9 28h-5.1l-11.9-28zM457.8 112.9c-.1-2.7-1-4.7-2.7-6.1-1.7-1.4-4-2-6.7-2-1.2 0-2.4.2-3.5.5s-2.1.8-3 1.5c-.9.7-1.6 1.5-2.2 2.5-.6 1-1 2.2-1.3 3.6h19.4zm2.8 11.9c-1.5 1.7-3.3 2.9-5.6 3.7-2.2.8-4.4 1.2-6.6 1.2-2.2 0-4.2-.3-6-1-1.8-.7-3.4-1.7-4.7-2.9-1.3-1.3-2.3-2.8-3-4.7-.7-1.8-1.1-3.9-1.1-6.1 0-2.1.4-4 1.1-5.8.7-1.8 1.7-3.3 3-4.6 1.3-1.3 2.8-2.3 4.6-3 1.8-.7 3.7-1.1 5.9-1.1s4.2.3 6 1c1.8.6 3.4 1.6 4.7 3 1.3 1.3 2.2 3 2.9 5 .6 2 .8 4.4.5 7.2h-24c.1 1.4.5 2.6 1.1 3.6.6 1.1 1.3 2 2.3 2.8.9.8 2 1.3 3.2 1.7 1.2.4 2.5.6 3.8.6.8 0 1.6-.1 2.5-.2.9-.2 1.7-.4 2.5-.6.8-.3 1.5-.6 2.2-1.1.7-.4 1.3-.9 1.7-1.5l3 2.8zM471.9 105.4c1-1.8 2.3-3 3.9-3.7 1.6-.7 3.2-1 4.7-1 1.2 0 2.4.2 3.5.6 1.1.4 2.1 1 3 1.6l-2.1 4c-.8-.5-1.5-.9-2.3-1.2-.8-.3-1.6-.4-2.6-.4-1.1 0-2.2.2-3.2.6-1 .4-1.9 1-2.6 1.7-.8.7-1.4 1.6-1.8 2.6-.4 1-.7 2.2-.7 3.4v15.6H467v-27.8h4.3l.6 4zM502.4 101.1h8.6v3.9h-8.7v15.2c0 1.7.3 3 .9 3.9.6 1 1.8 1.4 3.5 1.4.6 0 1.3-.1 1.9-.3.6-.2 1.3-.5 1.9-.8l1.4 3.8c-1.8.9-3.6 1.3-5.5 1.4-3.1.1-5.3-.7-6.7-2.4-1.4-1.7-2.1-4-2.1-7.1v-15.2H492V101h5.6v-7.5l4.7-.5v8.1zM537.6 112.9c-.1-2.7-1-4.7-2.7-6.1-1.7-1.4-4-2-6.7-2-1.2 0-2.4.2-3.5.5s-2.1.8-3 1.5c-.9.7-1.6 1.5-2.2 2.5-.6 1-1 2.2-1.3 3.6h19.4zm2.8 11.9c-1.5 1.7-3.3 2.9-5.5 3.7-2.2.8-4.4 1.2-6.6 1.2-2.2 0-4.2-.3-6-1-1.8-.7-3.4-1.7-4.7-2.9-1.3-1.3-2.3-2.8-3-4.7-.7-1.8-1.1-3.9-1.1-6.1 0-2.1.4-4 1.1-5.8.7-1.8 1.7-3.3 3-4.6 1.3-1.3 2.8-2.3 4.6-3 1.8-.7 3.7-1.1 5.9-1.1s4.2.3 6 1c1.8.6 3.4 1.6 4.7 3 1.3 1.3 2.2 3 2.9 5 .6 2 .8 4.4.5 7.2h-24c.1 1.4.5 2.6 1 3.6.6 1.1 1.3 2 2.2 2.8.9.8 2 1.3 3.2 1.7 1.2.4 2.5.6 3.8.6.8 0 1.6-.1 2.5-.2.9-.2 1.7-.4 2.5-.6.8-.3 1.5-.6 2.2-1.1.7-.4 1.3-.9 1.7-1.5l3.1 2.8zM571.5 125.5c-1.5 1.5-3.1 2.6-4.9 3.3-1.8.7-3.6 1-5.5 1-2 0-3.9-.3-5.7-1-1.8-.7-3.3-1.6-4.7-2.8-1.3-1.2-2.4-2.8-3.2-4.6-.8-1.8-1.2-3.9-1.2-6.2 0-2.3.4-4.3 1.1-6.1.8-1.8 1.8-3.3 3.1-4.6 1.3-1.2 2.9-2.2 4.7-2.8 1.8-.7 3.7-1 5.7-1 1.9 0 3.7.3 5.4 1 1.7.7 3.3 1.7 4.8 3.2l-3 3c-1-1-2.1-1.7-3.3-2.1-1.2-.5-2.5-.7-3.7-.7-1.4 0-2.7.2-4 .7-1.2.5-2.3 1.1-3.2 2-.9.9-1.6 1.9-2.2 3.2-.5 1.3-.8 2.7-.8 4.3 0 1.7.3 3.1.8 4.4.5 1.3 1.3 2.3 2.2 3.2.9.9 2 1.5 3.2 2 1.2.5 2.5.7 3.9.7 1.3 0 2.6-.2 3.9-.7 1.3-.5 2.4-1.2 3.4-2.2l3.2 2.8zM576 103.1v.8h.6c.1 0 .2 0 .3-.1.1-.1.1-.2.1-.3 0-.1 0-.2-.1-.3-.1-.1-.2-.1-.3-.1h-.6zm.9 1.1l.7.8v.1h-.5l-.7-.8h-.4v.8h-.4v-2.4h1.1c.2 0 .3 0 .4.1l.3.3c.1.1.1.2.1.3v.4c0 .1-.1.2-.2.3-.1 0-.3.1-.4.1zm-2.3-.3c0 .3 0 .5.1.7.1.2.2.4.4.6.2.2.3.3.6.4.2.1.5.1.8.1.3 0 .5 0 .8-.1.2-.1.4-.2.6-.4.2-.2.3-.4.4-.6.1-.2.1-.5.1-.7 0-.3 0-.5-.1-.7-.1-.2-.2-.4-.4-.6-.2-.2-.3-.3-.6-.4-.2-.1-.5-.1-.8-.1-.3 0-.5.1-.8.1-.2.1-.4.2-.6.4-.2.2-.3.4-.4.6 0 .2-.1.4-.1.7zm1.9-2.3c.4 0 .7.1 1 .2.3.1.5.3.7.5.2.2.3.5.4.7.1.3.2.6.2.9 0 .3 0 .6-.2.9-.1.3-.3.5-.4.7-.2.2-.4.4-.7.5-.3.1-.6.2-1 .2s-.7-.1-1-.2c-.3-.1-.5-.3-.7-.5-.2-.2-.3-.5-.4-.7-.1-.3-.2-.6-.2-.9 0-.3 0-.6.2-.9.1-.3.2-.5.4-.7.2-.2.4-.4.7-.5.3-.2.6-.2 1-.2"/></g><g><path d="M87.4 42c-1.7-2.9-5.4-3.9-8.3-2.2-2.9 1.7-3.9 5.3-2.2 8.2 1.7 2.9 5.4 3.8 8.3 2.2 2.9-1.6 3.9-5.3 2.2-8.2M66.3 40.3a5.41 5.41 0 00-2 7.4c1.5 2.6 4.8 3.5 7.4 2 2.6-1.5 3.5-4.8 2-7.4-1.4-2.6-4.8-3.5-7.4-2M53.5 40.9c-2.3 1.3-3.1 4.3-1.8 6.6s4.3 3.1 6.6 1.8 3.1-4.3 1.8-6.6c-1.3-2.4-4.3-3.2-6.6-1.8M51.5 37.5c2.1-1.2 2.8-3.8 1.6-5.9-1.2-2.1-3.9-2.8-5.9-1.6-2.1 1.2-2.8 3.8-1.6 5.9 1.2 2.1 3.8 2.8 5.9 1.6M34.4 30.6c-1.8 1-2.4 3.3-1.4 5 1 1.8 3.3 2.4 5.1 1.3 1.8-1 2.4-3.3 1.4-5-1.1-1.7-3.3-2.4-5.1-1.3M28.1 42.4c-1.5.8-2 2.7-1.1 4.2.9 1.5 2.7 2 4.2 1.1 1.5-.8 2-2.7 1.1-4.2-.8-1.5-2.7-2-4.2-1.1M35 54.1c-1.2.7-1.6 2.2-.9 3.4.7 1.2 2.2 1.6 3.4.9 1.2-.7 1.6-2.2.9-3.4-.7-1.2-2.2-1.6-3.4-.9M68 36.2c2.4-1.4 3.2-4.3 1.8-6.7-1.4-2.3-4.4-3.1-6.7-1.8-2.4 1.4-3.2 4.3-1.8 6.7 1.4 2.4 4.4 3.2 6.7 1.8M51.9 24.8c1.3 2.2 4.2 3 6.4 1.7s3-4.1 1.7-6.3-4.1-3-6.4-1.7c-2.2 1.2-3 4.1-1.7 6.3M46.4 16.9c-1.2-2-3.7-2.7-5.7-1.5-2 1.1-2.7 3.7-1.5 5.7 1.2 2 3.7 2.7 5.7 1.5 2-1.1 2.7-3.7 1.5-5.7M31.6 25.9c1.9-1.1 2.6-3.5 1.5-5.4-1.1-1.9-3.5-2.5-5.4-1.4-1.9 1.1-2.5 3.5-1.4 5.4 1 1.8 3.4 2.5 5.3 1.4M21.8 35c1.7-1 2.3-3.1 1.3-4.7-1-1.7-3.1-2.2-4.8-1.3-1.7.9-2.3 3.1-1.3 4.7 1 1.7 3.2 2.3 4.8 1.3M19 43.6c-.8-1.4-2.6-1.8-3.9-1-1.4.8-1.8 2.5-1.1 3.9.8 1.4 2.6 1.8 3.9 1.1 1.5-.9 2-2.7 1.1-4M22.2 56.8c-.7-1.2-2.2-1.6-3.3-.9-1.2.7-1.6 2.2-.9 3.3.7 1.2 2.2 1.6 3.3.9 1.2-.7 1.6-2.2.9-3.3M28.6 65.6c-1.1.6-1.4 2-.8 3 .6 1.1 2 1.4 3.1.8 1.1-.6 1.4-2 .8-3-.7-1-2.1-1.4-3.1-.8M41.9 69.4c-.9.5-1.2 1.7-.7 2.6.5.9 1.7 1.2 2.6.7.9-.5 1.2-1.7.7-2.6-.6-.9-1.7-1.2-2.6-.7M55.1 66.1c-.8.4-1 1.4-.6 2.2.4.8 1.4 1 2.2.6.8-.4 1-1.4.6-2.2-.4-.8-1.4-1-2.2-.6M82.5 36.3c2.6-1.5 3.5-4.8 2-7.4-1.5-2.6-4.9-3.5-7.5-2a5.41 5.41 0 00-2 7.4c1.5 2.6 4.9 3.5 7.5 2M75.5 24.3c2.5-1.4 3.4-4.6 1.9-7.1-1.4-2.5-4.7-3.3-7.2-1.9s-3.4 4.6-1.9 7.1 4.7 3.4 7.2 1.9M64.7 15.2c2.3-1.3 3-4.2 1.7-6.4s-4.2-3-6.4-1.7c-2.3 1.3-3 4.1-1.7 6.4 1.3 2.2 4.2 2.9 6.4 1.7M51.8 10.4c2.1-1.2 2.9-3.9 1.6-6-1.2-2.1-4-2.8-6.1-1.6-2.1 1.2-2.9 3.9-1.6 6 1.2 2.1 4 2.8 6.1 1.6M38 10c1.9-1.1 2.5-3.5 1.5-5.4-1.1-1.9-3.5-2.5-5.4-1.4-1.9 1.1-2.6 3.5-1.5 5.4 1 1.9 3.5 2.5 5.4 1.4M26.4 9.4C25.3 7.6 23 7 21.3 8c-1.8 1-2.4 3.3-1.4 5.1 1 1.8 3.3 2.4 5.1 1.4 1.8-1.1 2.4-3.4 1.4-5.1M14.4 22.7c1.6-.9 2.1-2.9 1.2-4.5-.9-1.6-2.9-2.1-4.5-1.2-1.6.9-2.1 2.9-1.2 4.5.9 1.6 2.9 2.1 4.5 1.2M4.3 28.9c-1.5.8-2 2.7-1.1 4.2.9 1.5 2.7 2 4.2 1.1 1.5-.8 2-2.7 1.1-4.2-.9-1.5-2.8-2-4.2-1.1M5.7 43.7C5 42.4 3.3 42 2 42.7c-1.3.7-1.7 2.4-1 3.6.7 1.3 2.4 1.7 3.7 1 1.3-.7 1.8-2.3 1-3.6M4.6 56.2c-1.2.7-1.6 2.2-.9 3.4.7 1.2 2.2 1.6 3.4.9 1.2-.7 1.6-2.2.9-3.3-.7-1.3-2.3-1.7-3.4-1M11.6 68.2c-1 .6-1.4 1.9-.8 2.9.6 1 1.9 1.3 2.9.8 1-.6 1.4-1.9.8-2.9-.6-1-1.9-1.4-2.9-.8M22.1 77.1c-.9.5-1.2 1.7-.7 2.6.5.9 1.7 1.2 2.6.7.9-.5 1.2-1.7.7-2.6-.5-.9-1.7-1.2-2.6-.7M35.1 82.1c-.8.4-1 1.4-.6 2.2.4.8 1.4 1 2.2.6.8-.4 1-1.4.6-2.2-.4-.8-1.4-1.1-2.2-.6M49.3 81.9c-.8.4-1 1.4-.6 2.2.5.8 1.4 1 2.2.6.8-.5 1-1.4.6-2.2-.4-.7-1.4-1-2.2-.6M61.8 77.5c-.7.4-1 1.3-.5 2 .4.7 1.3.9 2 .5s1-1.3.6-2-1.3-.9-2.1-.5M72.4 68.9c-.6.3-.8 1.1-.4 1.7.3.6 1.1.8 1.7.4.6-.3.8-1.1.4-1.6-.3-.6-1.1-.8-1.7-.5"/></g></svg>